:SAMPLES-PER-SECOND 30
:FULLY-SPECIFIED
:DEGREES
98
root  4.29145 37.431 -5.36359 14.4774 -36.4826 -1.17883
RightUpLeg  -40.1411 -7.75651 11.0132
RightLeg  37.9392 -22.6395 -18.0514
RightFoot  -9.28739 -0.140184 4.42662
RightToes  5.82063e-011 0 -3.6325e-017
Spine  34.8604 1.5365 9.30751
Spine1  -15.4018 4.6273 -14.4238
HEad  -48.5762 -21.5953 9.56875
LeftShoulder1  0.00519595 0.164315 9.55859
LeftArm  72.6207 -67.6051 -150.381
LeftForeArm  137.528 -77.3089 -130.323
LeftHand  -0.98289 1.14445 26.6495
RightShoulder  -0.282022 5.11486 -13.5507
RightArm  -54.0735 84.7649 15.6627
RightForeArm  26.9506 -6.76414 5.60551
RightHand  0.169762 -7.65989 -10.1025
LeftUpLeg  -45.0716 -22.2031 11.7005
LeftLeg  35.4944 3.83206 3.30976
LeftFoot  -5.2094 0.37239 -6.35389
LeftToes  -1.1369e-010 2.7689e-011 -1.90827e-011
99
root  4.27892 37.9454 -5.5124 15.8537 -35.3397 -0.510938
RightUpLeg  -39.7687 -5.75148 9.81354
RightLeg  33.712 -25.4874 -17.3726
RightFoot  -6.72659 -0.195627 3.71247
RightToes  5.82063e-011 0 -3.6325e-017
Spine  35.0343 0.766806 8.99722
Spine1  -16.392 3.55361 -14.4887
HEad  -47.7943 -21.7071 10.2373
LeftShoulder1  -0.0180112 2.04882 11.076
LeftArm  80.0185 -68.0631 -159.733
LeftForeArm  136.295 -77.6399 -128.586
LeftHand  -0.993939 1.19339 27.2464
RightShoulder  -0.291853 1.45631 -16.5092
RightArm  -115.735 82.5672 -48.9992
RightForeArm  22.2992 -6.56936 4.20001
RightHand  0.131163 -7.24944 -9.88593
LeftUpLeg  -44.8757 -21.8489 11.7314
LeftLeg  30.4686 3.95018 2.86681
LeftFoot  -1.75569 0.543089 -6.35005
LeftToes  -1.1369e-010 2.7689e-011 -1.90827e-011
100
root  4.31458 38.0447 -5.64845 16.1142 -34.0079 0.745808
RightUpLeg  -40.7154 -3.73149 7.67759
RightLeg  33.8024 -26.7359 -18.1518
RightFoot  -5.67589 -0.207155 3.38601
RightToes  5.82063e-011 0 -3.6325e-017
Spine  36.4086 -0.242302 9.04412
Spine1  -18.3622 2.47207 -15.2708
HEad  -47.2431 -22.4023 10.0776
LeftShoulder1  -0.0101695 3.12578 12.4123
LeftArm  85.0517 -68.0983 -166.598
LeftForeArm  136.258 -77.9277 -127.265
LeftHand  -0.976429 1.41483 28.2251
RightShoulder  -0.109669 -2.09497 -19.0067
RightArm  -127.974 75.66 -66.252
RightForeArm  16.222 -6.38063 2.93923
RightHand  0.0876568 -6.62458 -10.5089
LeftUpLeg  -45.0792 -20.3462 9.9757
LeftLeg  28.3772 2.7182 1.93476
LeftFoot  -0.0160957 0.609131 -6.14298
LeftToes  -1.1369e-010 2.7689e-011 -1.90827e-011
101
root  4.38081 37.7349 -5.76977 15.1727 -32.8484 2.24758
RightUpLeg  -42.6593 -2.45797 5.4389
RightLeg  38.2249 -26.2428 -20.6867
RightFoot  -6.25768 -0.231114 4.28345
RightToes  5.82063e-011 0 -3.6325e-017
Spine  38.6465 -1.03874 9.08692
Spine1  -20.451 1.72132 -15.8014
HEad  -47.4083 -23.4372 9.11066
LeftShoulder1  -0.0083008 3.21786 12.8915
LeftArm  87.1517 -68.1962 -170.174
LeftForeArm  137.625 -77.8502 -127.988
LeftHand  -0.94417 1.64543 28.9458
RightShoulder  0.161749 -4.98935 -21.519
RightArm  -125.766 69.0047 -69.5415
RightForeArm  9.14385 -6.18182 1.83265
RightHand  0.0653469 -6.2957 -11.1562
LeftUpLeg  -45.7637 -18.4617 7.17431
LeftLeg  29.9537 0.610703 0.71449
LeftFoot  -0.582031 0.525089 -5.52285
LeftToes  -1.1369e-010 2.7689e-011 -1.90827e-011
102
root  4.43774 36.9953 -5.85678 12.9633 -31.8638 3.335
RightUpLeg  -44.5557 -2.17727 4.10834
RightLeg  45.4933 -24.4193 -24.4799
RightFoot  -8.28186 -0.200684 5.40735
RightToes  5.82063e-011 0 -3.6325e-017
Spine  41.0182 -1.4795 9.20961
Spine1  -21.317 1.56773 -15.4679
HEad  -47.9442 -24.4088 7.77613
LeftShoulder1  -0.0230347 2.45832 12.2699
LeftArm  87.4632 -69.0014 -171.291
LeftForeArm  139.096 -77.4704 -130.041
LeftHand  -0.915208 1.76459 28.9785
RightShoulder  0.428088 -6.84789 -24.003
RightArm  -122.607 64.4143 -69.8101
RightForeArm  3.16551 -5.94042 0.660755
RightHand  0.0826905 -6.46733 -11.3185
LeftUpLeg  -46.8892 -16.7686 4.43112
LeftLeg  35.7277 -1.61164 -0.901264
LeftFoot  -3.47598 0.360096 -4.93342
LeftToes  -1.1369e-010 2.7689e-011 -1.90827e-011
103
root  4.46363 35.8554 -5.85745 9.94571 -31.1541 3.37102
RightUpLeg  -45.7584 -2.74914 4.24709
RightLeg  53.6358 -21.2081 -28.1022
RightFoot  -11.5014 -0.0728041 5.58557
RightToes  5.82063e-011 0 -3.6325e-017
Spine  42.9428 -1.69123 9.55024
Spine1  -20.6886 1.88097 -14.0872
HEad  -47.9791 -24.3686 6.29494
LeftShoulder1  -0.0342205 1.16553 11.3313
LeftArm  85.3054 -70.8299 -169.368
LeftForeArm  139.962 -77.0917 -131.799
LeftHand  -0.882739 1.85014 28.6376
RightShoulder  0.503627 -7.06653 -25.4968
RightArm  -122.589 62.8744 -69.8607
RightForeArm  1.20034 -5.76211 -0.251445
RightHand  0.0924317 -6.57288 -11.3011
LeftUpLeg  -48.1813 -15.5517 2.72611
LeftLeg  44.7114 -2.86424 -2.61204
LeftFoot  -7.9463 0.189016 -4.81063
LeftToes  -1.1369e-010 2.7689e-011 -1.90827e-011
104
root  4.4783 34.5315 -5.71775 7.18799 -31.4056 2.54806
RightUpLeg  -46.6087 -3.88537 5.39976
RightLeg  60.9442 -16.8422 -29.8395
RightFoot  -15.3375 0.0751366 5.12676
RightToes  5.82063e-011 0 -3.6325e-017
Spine  44.1444 -1.78647 10.0022
Spine1  -19.5976 2.3188 -12.7098
HEad  -46.8611 -23.0389 4.82843
LeftShoulder1  -0.0497997 -0.530163 11.0507
LeftArm  77.8257 -72.9882 -161.674
LeftForeArm  140.491 -76.9714 -132.389
LeftHand  -0.86191 1.89891 28.3607
RightShoulder  0.22912 -5.10303 -25.1035
RightArm  -124.473 64.9003 -69.3906
RightForeArm  4.2385 -5.82372 -0.0577544
RightHand  0.0541865 -6.16795 -11.2579
LeftUpLeg  -49.4232 -15.0469 2.28608
LeftLeg  54.1191 -2.52741 -3.2081
LeftFoot  -12.8338 0.0120447 -4.97832
LeftToes  -1.1369e-010 2.7689e-011 -1.90827e-011
